<svg class="main-svg" xmlns="http://www.w3.org/2000/svg" xmlns:xlink="http://www.w3.org/1999/xlink" width="700" height="600" style="" viewBox="0 0 700 600"><rect x="0" y="0" width="700" height="600" style="fill: rgb(255, 255, 255); fill-opacity: 1;"/><defs id="defs-5f16f7"><g class="clips"><clipPath id="clip5f16f7xyplot" class="plotclip"><rect width="474" height="420"/></clipPath><clipPath class="axesclip" id="clip5f16f7x"><rect x="80" y="0" width="474" height="600"/></clipPath><clipPath class="axesclip" id="clip5f16f7y"><rect x="0" y="100" width="700" height="420"/></clipPath><clipPath class="axesclip" id="clip5f16f7xy"><rect x="80" y="100" width="474" height="420"/></clipPath></g><g class="gradients"><linearGradient x1="0" y1="1" x2="0" y2="0" gradientUnits="objectBoundingBox" id="g5f16f7-cbcoloraxis"><stop offset="0%" stop-color="rgb(0, 128, 0)" stop-opacity="1"/><stop offset="50%" stop-color="rgb(255, 255, 255)" stop-opacity="1"/><stop offset="100%" stop-color="rgb(255, 0, 0)" stop-opacity="1"/></linearGradient></g><g class="patterns"/></defs><g class="bglayer"><rect class="bg" x="80" y="100" width="474" height="420" style="fill: rgb(229, 236, 246); fill-opacity: 1; stroke-width: 0;"/></g><g class="layer-below"><g class="imagelayer"/><g class="shapelayer"/></g><g class="cartesianlayer"><g class="subplot xy"><g class="layer-subplot"><g class="shapelayer"/><g class="imagelayer"/></g><g class="minor-gridlayer"><g class="x"/><g class="y"/></g><g class="gridlayer"><g class="x"><path class="xgrid crisp" transform="translate(94.49,0)" d="M0,100v420" style="stroke: rgb(255, 255, 255); stroke-opacity: 1; stroke-width: 1px;"/><path class="xgrid crisp" transform="translate(153.36,0)" d="M0,100v420" style="stroke: rgb(255, 255, 255); stroke-opacity: 1; stroke-width: 1px;"/><path class="xgrid crisp" transform="translate(195.13,0)" d="M0,100v420" style="stroke: rgb(255, 255, 255); stroke-opacity: 1; stroke-width: 1px;"/><path class="xgrid crisp" transform="translate(227.53,0)" d="M0,100v420" style="stroke: rgb(255, 255, 255); stroke-opacity: 1; stroke-width: 1px;"/><path class="xgrid crisp" transform="translate(254,0)" d="M0,100v420" style="stroke: rgb(255, 255, 255); stroke-opacity: 1; stroke-width: 1px;"/><path class="xgrid crisp" transform="translate(276.38,0)" d="M0,100v420" style="stroke: rgb(255, 255, 255); stroke-opacity: 1; stroke-width: 1px;"/><path class="xgrid crisp" transform="translate(295.77,0)" d="M0,100v420" style="stroke: rgb(255, 255, 255); stroke-opacity: 1; stroke-width: 1px;"/><path class="xgrid crisp" transform="translate(312.87,0)" d="M0,100v420" style="stroke: rgb(255, 255, 255); stroke-opacity: 1; stroke-width: 1px;"/><path class="xgrid crisp" transform="translate(328.16999999999996,0)" d="M0,100v420" style="stroke: rgb(255, 255, 255); stroke-opacity: 1; stroke-width: 1px;"/><path class="xgrid crisp" transform="translate(428.81,0)" d="M0,100v420" style="stroke: rgb(255, 255, 255); stroke-opacity: 1; stroke-width: 1px;"/><path class="xgrid crisp" transform="translate(487.68,0)" d="M0,100v420" style="stroke: rgb(255, 255, 255); stroke-opacity: 1; stroke-width: 1px;"/><path class="xgrid crisp" transform="translate(529.44,0)" d="M0,100v420" style="stroke: rgb(255, 255, 255); stroke-opacity: 1; stroke-width: 1px;"/></g><g class="y"><path class="ygrid crisp" transform="translate(0,503.79)" d="M80,0h474" style="stroke: rgb(255, 255, 255); stroke-opacity: 1; stroke-width: 1px;"/><path class="ygrid crisp" transform="translate(0,451.14)" d="M80,0h474" style="stroke: rgb(255, 255, 255); stroke-opacity: 1; stroke-width: 1px;"/><path class="ygrid crisp" transform="translate(0,401.5)" d="M80,0h474" style="stroke: rgb(255, 255, 255); stroke-opacity: 1; stroke-width: 1px;"/><path class="ygrid crisp" transform="translate(0,354.55)" d="M80,0h474" style="stroke: rgb(255, 255, 255); stroke-opacity: 1; stroke-width: 1px;"/><path class="ygrid crisp" transform="translate(0,310)" d="M80,0h474" style="stroke: rgb(255, 255, 255); stroke-opacity: 1; stroke-width: 1px;"/><path class="ygrid crisp" transform="translate(0,267.63)" d="M80,0h474" style="stroke: rgb(255, 255, 255); stroke-opacity: 1; stroke-width: 1px;"/><path class="ygrid crisp" transform="translate(0,227.23000000000002)" d="M80,0h474" style="stroke: rgb(255, 255, 255); stroke-opacity: 1; stroke-width: 1px;"/><path class="ygrid crisp" transform="translate(0,188.63)" d="M80,0h474" style="stroke: rgb(255, 255, 255); stroke-opacity: 1; stroke-width: 1px;"/><path class="ygrid crisp" transform="translate(0,151.66)" d="M80,0h474" style="stroke: rgb(255, 255, 255); stroke-opacity: 1; stroke-width: 1px;"/><path class="ygrid crisp" transform="translate(0,116.21000000000001)" d="M80,0h474" style="stroke: rgb(255, 255, 255); stroke-opacity: 1; stroke-width: 1px;"/></g></g><g class="zerolinelayer"/><g class="layer-between"><g class="shapelayer"/><g class="imagelayer"/></g><path class="xlines-below"/><path class="ylines-below"/><g class="overlines-below"/><g class="xaxislayer-below"/><g class="yaxislayer-below"/><g class="overaxes-below"/><g class="overplot"><g class="xy" transform="translate(80,100)" clip-path="url(#clip5f16f7xyplot)"><g class="scatterlayer mlayer"><g class="trace scatter trace245001" style="stroke-miterlimit: 2; opacity: 1;"><g class="fills"/><g class="errorbars"/><g class="lines"/><g class="points"><path class="point" transform="translate(219.44,313.13)" d="M4,0A4,4 0 1,1 0,-4A4,4 0 0,1 4,0Z" style="opacity: 1; stroke-width: 0.5px; fill: rgb(123, 189, 123); fill-opacity: 1; stroke: rgb(47, 79, 79); stroke-opacity: 1;"/><path class="point" transform="translate(229.83,330.08)" d="M4,0A4,4 0 1,1 0,-4A4,4 0 0,1 4,0Z" style="opacity: 1; stroke-width: 0.5px; fill: rgb(91, 173, 91); fill-opacity: 1; stroke: rgb(47, 79, 79); stroke-opacity: 1;"/><path class="point" transform="translate(237.82,284.57)" d="M4,0A4,4 0 1,1 0,-4A4,4 0 0,1 4,0Z" style="opacity: 1; stroke-width: 0.5px; fill: rgb(145, 200, 145); fill-opacity: 1; stroke: rgb(47, 79, 79); stroke-opacity: 1;"/><path class="point" transform="translate(254.99,305.39)" d="M4,0A4,4 0 1,1 0,-4A4,4 0 0,1 4,0Z" style="opacity: 1; stroke-width: 0.5px; fill: rgb(98, 177, 98); fill-opacity: 1; stroke: rgb(47, 79, 79); stroke-opacity: 1;"/><path class="point" transform="translate(28.7,279.67)" d="M4,0A4,4 0 1,1 0,-4A4,4 0 0,1 4,0Z" style="opacity: 1; stroke-width: 0.5px; fill: rgb(230, 243, 230); fill-opacity: 1; stroke: rgb(47, 79, 79); stroke-opacity: 1;"/><path class="point" transform="translate(32.53,292.75)" d="M4,0A4,4 0 1,1 0,-4A4,4 0 0,1 4,0Z" style="opacity: 1; stroke-width: 0.5px; fill: rgb(225, 240, 225); fill-opacity: 1; stroke: rgb(47, 79, 79); stroke-opacity: 1;"/><path class="point" transform="translate(142.85,328.92)" d="M4,0A4,4 0 1,1 0,-4A4,4 0 0,1 4,0Z" style="opacity: 1; stroke-width: 0.5px; fill: rgb(166, 211, 166); fill-opacity: 1; stroke: rgb(47, 79, 79); stroke-opacity: 1;"/><path class="point" transform="translate(145.35,236.98)" d="M4,0A4,4 0 1,1 0,-4A4,4 0 0,1 4,0Z" style="opacity: 1; stroke-width: 0.5px; fill: rgb(233, 244, 233); fill-opacity: 1; stroke: rgb(47, 79, 79); stroke-opacity: 1;"/><path class="point" transform="translate(196.5,307.75)" d="M4,0A4,4 0 1,1 0,-4A4,4 0 0,1 4,0Z" style="opacity: 1; stroke-width: 0.5px; fill: rgb(147, 201, 147); fill-opacity: 1; stroke: rgb(47, 79, 79); stroke-opacity: 1;"/><path class="point" transform="translate(197.76,307.32)" d="M4,0A4,4 0 1,1 0,-4A4,4 0 0,1 4,0Z" style="opacity: 1; stroke-width: 0.5px; fill: rgb(147, 201, 147); fill-opacity: 1; stroke: rgb(47, 79, 79); stroke-opacity: 1;"/><path class="point" transform="translate(324.32,269.76)" d="M4,0A4,4 0 1,1 0,-4A4,4 0 0,1 4,0Z" style="opacity: 1; stroke-width: 0.5px; fill: rgb(93, 174, 93); fill-opacity: 1; stroke: rgb(47, 79, 79); stroke-opacity: 1;"/><path class="point" transform="translate(327.72,281.6)" d="M4,0A4,4 0 1,1 0,-4A4,4 0 0,1 4,0Z" style="opacity: 1; stroke-width: 0.5px; fill: rgb(58, 157, 58); fill-opacity: 1; stroke: rgb(47, 79, 79); stroke-opacity: 1;"/><path class="point" transform="translate(137.81,274.93)" d="M4,0A4,4 0 1,1 0,-4A4,4 0 0,1 4,0Z" style="opacity: 1; stroke-width: 0.5px; fill: rgb(206, 231, 206); fill-opacity: 1; stroke: rgb(47, 79, 79); stroke-opacity: 1;"/><path class="point" transform="translate(138.24,280.09)" d="M4,0A4,4 0 1,1 0,-4A4,4 0 0,1 4,0Z" style="opacity: 1; stroke-width: 0.5px; fill: rgb(203, 229, 203); fill-opacity: 1; stroke: rgb(47, 79, 79); stroke-opacity: 1;"/><path class="point" transform="translate(113.45,322.79)" d="M4,0A4,4 0 1,1 0,-4A4,4 0 0,1 4,0Z" style="opacity: 1; stroke-width: 0.5px; fill: rgb(186, 220, 186); fill-opacity: 1; stroke: rgb(47, 79, 79); stroke-opacity: 1;"/><path class="point" transform="translate(116.59,330.6)" d="M4,0A4,4 0 1,1 0,-4A4,4 0 0,1 4,0Z" style="opacity: 1; stroke-width: 0.5px; fill: rgb(179, 217, 179); fill-opacity: 1; stroke: rgb(47, 79, 79); stroke-opacity: 1;"/><path class="point" transform="translate(134.62,293.72)" d="M4,0A4,4 0 1,1 0,-4A4,4 0 0,1 4,0Z" style="opacity: 1; stroke-width: 0.5px; fill: rgb(194, 225, 194); fill-opacity: 1; stroke: rgb(47, 79, 79); stroke-opacity: 1;"/><path class="point" transform="translate(153.94,331.15)" d="M4,0A4,4 0 1,1 0,-4A4,4 0 0,1 4,0Z" style="opacity: 1; stroke-width: 0.5px; fill: rgb(157, 206, 157); fill-opacity: 1; stroke: rgb(47, 79, 79); stroke-opacity: 1;"/><path class="point" transform="translate(234.7,206.74)" d="M4,0A4,4 0 1,1 0,-4A4,4 0 0,1 4,0Z" style="opacity: 1; stroke-width: 0.5px; fill: rgb(255, 250, 250); fill-opacity: 1; stroke: rgb(47, 79, 79); stroke-opacity: 1;"/><path class="point" transform="translate(242.6,175.8)" d="M4,0A4,4 0 1,1 0,-4A4,4 0 0,1 4,0Z" style="opacity: 1; stroke-width: 0.5px; fill: rgb(255, 199, 199); fill-opacity: 1; stroke: rgb(47, 79, 79); stroke-opacity: 1;"/><path class="point" transform="translate(93.85,305.01)" d="M4,0A4,4 0 1,1 0,-4A4,4 0 0,1 4,0Z" style="opacity: 1; stroke-width: 0.5px; fill: rgb(203, 229, 203); fill-opacity: 1; stroke: rgb(47, 79, 79); stroke-opacity: 1;"/><path class="point" transform="translate(107.55,292.83)" d="M4,0A4,4 0 1,1 0,-4A4,4 0 0,1 4,0Z" style="opacity: 1; stroke-width: 0.5px; fill: rgb(205, 230, 205); fill-opacity: 1; stroke: rgb(47, 79, 79); stroke-opacity: 1;"/><path class="point" transform="translate(138.1,287.47)" d="M4,0A4,4 0 1,1 0,-4A4,4 0 0,1 4,0Z" style="opacity: 1; stroke-width: 0.5px; fill: rgb(197, 226, 197); fill-opacity: 1; stroke: rgb(47, 79, 79); stroke-opacity: 1;"/><path class="point" transform="translate(172.44,392.61)" d="M4,0A4,4 0 1,1 0,-4A4,4 0 0,1 4,0Z" style="opacity: 1; stroke-width: 0.5px; fill: rgb(93, 174, 93); fill-opacity: 1; stroke: rgb(47, 79, 79); stroke-opacity: 1;"/><path class="point" transform="translate(173.09,410)" d="M4,0A4,4 0 1,1 0,-4A4,4 0 0,1 4,0Z" style="opacity: 1; stroke-width: 0.5px; fill: rgb(78, 167, 78); fill-opacity: 1; stroke: rgb(47, 79, 79); stroke-opacity: 1;"/><path class="point" transform="translate(171.67,409.29)" d="M4,0A4,4 0 1,1 0,-4A4,4 0 0,1 4,0Z" style="opacity: 1; stroke-width: 0.5px; fill: rgb(80, 168, 80); fill-opacity: 1; stroke: rgb(47, 79, 79); stroke-opacity: 1;"/><path class="point" transform="translate(437.58,270.6)" d="M4,0A4,4 0 1,1 0,-4A4,4 0 0,1 4,0Z" style="opacity: 1; stroke-width: 0.5px; fill: rgb(0, 128, 0); fill-opacity: 1; stroke: rgb(47, 79, 79); stroke-opacity: 1;"/><path class="point" transform="translate(443.41,255.22)" d="M4,0A4,4 0 1,1 0,-4A4,4 0 0,1 4,0Z" style="opacity: 1; stroke-width: 0.5px; fill: rgb(0, 128, 0); fill-opacity: 1; stroke: rgb(47, 79, 79); stroke-opacity: 1;"/><path class="point" transform="translate(445.3,242.83)" d="M4,0A4,4 0 1,1 0,-4A4,4 0 0,1 4,0Z" style="opacity: 1; stroke-width: 0.5px; fill: rgb(47, 151, 47); fill-opacity: 1; stroke: rgb(47, 79, 79); stroke-opacity: 1;"/><path class="point" transform="translate(92.13,306.49)" d="M4,0A4,4 0 1,1 0,-4A4,4 0 0,1 4,0Z" style="opacity: 1; stroke-width: 0.5px; fill: rgb(203, 229, 203); fill-opacity: 1; stroke: rgb(47, 79, 79); stroke-opacity: 1;"/><path class="point" transform="translate(92.52,301.68)" d="M4,0A4,4 0 1,1 0,-4A4,4 0 0,1 4,0Z" style="opacity: 1; stroke-width: 0.5px; fill: rgb(206, 230, 206); fill-opacity: 1; stroke: rgb(47, 79, 79); stroke-opacity: 1;"/><path class="point" transform="translate(93.88,303.58)" d="M4,0A4,4 0 1,1 0,-4A4,4 0 0,1 4,0Z" style="opacity: 1; stroke-width: 0.5px; fill: rgb(204, 230, 204); fill-opacity: 1; stroke: rgb(47, 79, 79); stroke-opacity: 1;"/><path class="point" transform="translate(97.13,289.6)" d="M4,0A4,4 0 1,1 0,-4A4,4 0 0,1 4,0Z" style="opacity: 1; stroke-width: 0.5px; fill: rgb(210, 233, 210); fill-opacity: 1; stroke: rgb(47, 79, 79); stroke-opacity: 1;"/><path class="point" transform="translate(153.09,267.36)" d="M4,0A4,4 0 1,1 0,-4A4,4 0 0,1 4,0Z" style="opacity: 1; stroke-width: 0.5px; fill: rgb(207, 231, 207); fill-opacity: 1; stroke: rgb(47, 79, 79); stroke-opacity: 1;"/><path class="point" transform="translate(220.42,409.08)" d="M4,0A4,4 0 1,1 0,-4A4,4 0 0,1 4,0Z" style="opacity: 1; stroke-width: 0.5px; fill: rgb(11, 133, 11); fill-opacity: 1; stroke: rgb(47, 79, 79); stroke-opacity: 1;"/></g><g class="text"/></g></g></g></g><g class="zerolinelayer-above"/><path class="xlines-above crisp" d="M0,0" style="fill: none;"/><path class="ylines-above crisp" d="M0,0" style="fill: none;"/><g class="overlines-above"/><g class="xaxislayer-above"><g class="xtick"><text text-anchor="middle" x="0" y="530" transform="translate(94.49,0)" style="font-family: 'Open Sans', verdana, arial, sans-serif; font-size: 9px; fill: rgb(42, 63, 95); fill-opacity: 1; white-space: pre;">2</text></g><g class="xtick"><text text-anchor="middle" x="0" y="530" style="font-family: 'Open Sans', verdana, arial, sans-serif; font-size: 9px; fill: rgb(42, 63, 95); fill-opacity: 1; white-space: pre;" transform="translate(153.36,0)">3</text></g><g class="xtick"><text text-anchor="middle" x="0" y="530" style="font-family: 'Open Sans', verdana, arial, sans-serif; font-size: 9px; fill: rgb(42, 63, 95); fill-opacity: 1; white-space: pre;" transform="translate(195.13,0)">4</text></g><g class="xtick"><text text-anchor="middle" x="0" y="530" style="font-family: 'Open Sans', verdana, arial, sans-serif; font-size: 9px; fill: rgb(42, 63, 95); fill-opacity: 1; white-space: pre;" transform="translate(227.53,0)">5</text></g><g class="xtick"><text text-anchor="middle" x="0" y="530" style="font-family: 'Open Sans', verdana, arial, sans-serif; font-size: 9px; fill: rgb(42, 63, 95); fill-opacity: 1; white-space: pre;" transform="translate(254,0)">6</text></g><g class="xtick"><text text-anchor="middle" x="0" y="530" style="font-family: 'Open Sans', verdana, arial, sans-serif; font-size: 9px; fill: rgb(42, 63, 95); fill-opacity: 1; white-space: pre;" transform="translate(276.38,0)">7</text></g><g class="xtick"><text text-anchor="middle" x="0" y="530" style="font-family: 'Open Sans', verdana, arial, sans-serif; font-size: 9px; fill: rgb(42, 63, 95); fill-opacity: 1; white-space: pre;" transform="translate(295.77,0)">8</text></g><g class="xtick"><text text-anchor="middle" x="0" y="530" style="font-family: 'Open Sans', verdana, arial, sans-serif; font-size: 9px; fill: rgb(42, 63, 95); fill-opacity: 1; white-space: pre;" transform="translate(312.87,0)">9</text></g><g class="xtick"><text text-anchor="middle" x="6" y="539" style="font-family: 'Open Sans', verdana, arial, sans-serif; font-size: 12px; fill: rgb(42, 63, 95); fill-opacity: 1; white-space: pre;" transform="translate(328.16999999999996,0)">0.1</text></g><g class="xtick"><text text-anchor="middle" x="0" y="530" style="font-family: 'Open Sans', verdana, arial, sans-serif; font-size: 9px; fill: rgb(42, 63, 95); fill-opacity: 1; white-space: pre;" transform="translate(428.81,0)">2</text></g><g class="xtick"><text text-anchor="middle" x="0" y="530" style="font-family: 'Open Sans', verdana, arial, sans-serif; font-size: 9px; fill: rgb(42, 63, 95); fill-opacity: 1; white-space: pre;" transform="translate(487.68,0)">3</text></g><g class="xtick"><text text-anchor="middle" x="0" y="530" style="font-family: 'Open Sans', verdana, arial, sans-serif; font-size: 9px; fill: rgb(42, 63, 95); fill-opacity: 1; white-space: pre;" transform="translate(529.44,0)">4</text></g></g><g class="yaxislayer-above"><g class="ytick"><text text-anchor="end" x="79" y="4.199999999999999" transform="translate(0,503.79)" style="font-family: 'Open Sans', verdana, arial, sans-serif; font-size: 12px; fill: rgb(42, 63, 95); fill-opacity: 1; white-space: pre;">0.8</text></g><g class="ytick"><text text-anchor="end" x="79" y="4.199999999999999" style="font-family: 'Open Sans', verdana, arial, sans-serif; font-size: 12px; fill: rgb(42, 63, 95); fill-opacity: 1; white-space: pre;" transform="translate(0,451.14)">0.85</text></g><g class="ytick"><text text-anchor="end" x="79" y="4.199999999999999" style="font-family: 'Open Sans', verdana, arial, sans-serif; font-size: 12px; fill: rgb(42, 63, 95); fill-opacity: 1; white-space: pre;" transform="translate(0,401.5)">0.9</text></g><g class="ytick"><text text-anchor="end" x="79" y="4.199999999999999" style="font-family: 'Open Sans', verdana, arial, sans-serif; font-size: 12px; fill: rgb(42, 63, 95); fill-opacity: 1; white-space: pre;" transform="translate(0,354.55)">0.95</text></g><g class="ytick"><text text-anchor="end" x="79" y="4.199999999999999" style="font-family: 'Open Sans', verdana, arial, sans-serif; font-size: 12px; fill: rgb(42, 63, 95); fill-opacity: 1; white-space: pre;" transform="translate(0,310)">1</text></g><g class="ytick"><text text-anchor="end" x="79" y="4.199999999999999" style="font-family: 'Open Sans', verdana, arial, sans-serif; font-size: 12px; fill: rgb(42, 63, 95); fill-opacity: 1; white-space: pre;" transform="translate(0,267.63)">1.05</text></g><g class="ytick"><text text-anchor="end" x="79" y="4.199999999999999" style="font-family: 'Open Sans', verdana, arial, sans-serif; font-size: 12px; fill: rgb(42, 63, 95); fill-opacity: 1; white-space: pre;" transform="translate(0,227.23000000000002)">1.1</text></g><g class="ytick"><text text-anchor="end" x="79" y="4.199999999999999" style="font-family: 'Open Sans', verdana, arial, sans-serif; font-size: 12px; fill: rgb(42, 63, 95); fill-opacity: 1; white-space: pre;" transform="translate(0,188.63)">1.15</text></g><g class="ytick"><text text-anchor="end" x="79" y="4.199999999999999" style="font-family: 'Open Sans', verdana, arial, sans-serif; font-size: 12px; fill: rgb(42, 63, 95); fill-opacity: 1; white-space: pre;" transform="translate(0,151.66)">1.2</text></g><g class="ytick"><text text-anchor="end" x="79" y="4.199999999999999" style="font-family: 'Open Sans', verdana, arial, sans-serif; font-size: 12px; fill: rgb(42, 63, 95); fill-opacity: 1; white-space: pre;" transform="translate(0,116.21000000000001)">1.25</text></g></g><g class="overaxes-above"/></g></g><g class="polarlayer"/><g class="smithlayer"/><g class="ternarylayer"/><g class="geolayer"/><g class="funnelarealayer"/><g class="pielayer"/><g class="iciclelayer"/><g class="treemaplayer"/><g class="sunburstlayer"/><g class="glimages"/><defs id="topdefs-5f16f7"><g class="clips"/></defs><g class="layer-above"><g class="imagelayer"/><g class="shapelayer"><g class="shape-group" data-index="0" clip-path="url(#clip5f16f7y)"><path data-index="0" fill-rule="evenodd" d="M80,310L554,310" style="opacity: 1; stroke: rgb(128, 128, 128); stroke-opacity: 1; fill: rgb(0, 0, 0); fill-opacity: 0; stroke-dasharray: 9px, 9px; stroke-width: 2px;"/></g></g></g><g class="infolayer"><g class="cbcoloraxis colorbar" transform="translate(80,100)"><rect class="cbbg" x="483" y="0" width="124.76171875" height="420" style="fill: rgb(0, 0, 0); fill-opacity: 0; stroke: rgb(68, 68, 68); stroke-opacity: 1; stroke-width: 0;"/><g class="cbfills" transform="translate(0,31)"><rect class="cbfill gradient_filled" style="fill: url('#g5f16f7-cbcoloraxis');" x="493" y="0" width="30" height="379"/></g><g class="cblines" transform="translate(0,31)"/><g class="cbaxis crisp" transform="translate(0,-100)"><g class="ycbcoloraxistick"><text text-anchor="start" x="525.9" y="4.199999999999999" transform="translate(0,481.23)" style="font-family: 'Open Sans', verdana, arial, sans-serif; font-size: 12px; fill: rgb(42, 63, 95); fill-opacity: 1; white-space: pre;">−0.015</text></g><g class="ycbcoloraxistick"><text text-anchor="start" x="525.9" y="4.199999999999999" style="font-family: 'Open Sans', verdana, arial, sans-serif; font-size: 12px; fill: rgb(42, 63, 95); fill-opacity: 1; white-space: pre;" transform="translate(0,427.65)">−0.01</text></g><g class="ycbcoloraxistick"><text text-anchor="start" x="525.9" y="4.199999999999999" style="font-family: 'Open Sans', verdana, arial, sans-serif; font-size: 12px; fill: rgb(42, 63, 95); fill-opacity: 1; white-space: pre;" transform="translate(0,374.08000000000004)">−0.005</text></g><g class="ycbcoloraxistick"><text text-anchor="start" x="525.9" y="4.199999999999999" style="font-family: 'Open Sans', verdana, arial, sans-serif; font-size: 12px; fill: rgb(42, 63, 95); fill-opacity: 1; white-space: pre;" transform="translate(0,320.5)">0</text></g><g class="ycbcoloraxistick"><text text-anchor="start" x="525.9" y="4.199999999999999" style="font-family: 'Open Sans', verdana, arial, sans-serif; font-size: 12px; fill: rgb(42, 63, 95); fill-opacity: 1; white-space: pre;" transform="translate(0,266.92)">0.005</text></g><g class="ycbcoloraxistick"><text text-anchor="start" x="525.9" y="4.199999999999999" style="font-family: 'Open Sans', verdana, arial, sans-serif; font-size: 12px; fill: rgb(42, 63, 95); fill-opacity: 1; white-space: pre;" transform="translate(0,213.35000000000002)">0.01</text></g><g class="ycbcoloraxistick"><text text-anchor="start" x="525.9" y="4.199999999999999" style="font-family: 'Open Sans', verdana, arial, sans-serif; font-size: 12px; fill: rgb(42, 63, 95); fill-opacity: 1; white-space: pre;" transform="translate(0,159.77000000000004)">0.015</text></g></g><g class="cbtitleunshift" transform="translate(-80,-100)"><g class="cbtitle" transform=""><text class="ycbcoloraxistitle" x="573.48" y="123.5" text-anchor="start" style="opacity: 1; font-family: 'Open Sans', verdana, arial, sans-serif; font-size: 14px; fill: rgb(42, 63, 95); fill-opacity: 1; white-space: pre;">Δ time (seconds)</text></g></g><rect class="cboutline" x="493" y="31" width="30" height="379" style="stroke: rgb(68, 68, 68); stroke-opacity: 1; fill: none; stroke-width: 0;"/></g><g class="g-gtitle"><text class="gtitle" x="35" y="50" text-anchor="start" dy="0em" style="opacity: 1; font-family: 'Open Sans', verdana, arial, sans-serif; font-size: 17px; fill: rgb(42, 63, 95); fill-opacity: 1; white-space: pre;">time: candidate vs baseline (legacy) — top-right = regressed</text></g><g class="g-xtitle"><text class="xtitle" x="317" y="566.3" text-anchor="middle" style="opacity: 1; font-family: 'Open Sans', verdana, arial, sans-serif; font-size: 14px; fill: rgb(42, 63, 95); fill-opacity: 1; white-space: pre;">baseline time (seconds), log</text></g><g class="g-ytitle"><text class="ytitle" transform="rotate(-90,36.240625,310)" x="36.240625" y="310" text-anchor="middle" style="opacity: 1; font-family: 'Open Sans', verdana, arial, sans-serif; font-size: 14px; fill: rgb(42, 63, 95); fill-opacity: 1; white-space: pre;">ratio: candidate / baseline (log)</text></g></g></svg>