<svg class="main-svg" xmlns="http://www.w3.org/2000/svg" xmlns:xlink="http://www.w3.org/1999/xlink" width="700" height="600" style="" viewBox="0 0 700 600"><rect x="0" y="0" width="700" height="600" style="fill: rgb(255, 255, 255); fill-opacity: 1;"/><defs id="defs-89c093"><g class="clips"><clipPath id="clip89c093xyplot" class="plotclip"><rect width="474" height="420"/></clipPath><clipPath class="axesclip" id="clip89c093x"><rect x="80" y="0" width="474" height="600"/></clipPath><clipPath class="axesclip" id="clip89c093y"><rect x="0" y="100" width="700" height="420"/></clipPath><clipPath class="axesclip" id="clip89c093xy"><rect x="80" y="100" width="474" height="420"/></clipPath></g><g class="gradients"><linearGradient x1="0" y1="1" x2="0" y2="0" gradientUnits="objectBoundingBox" id="g89c093-cbcoloraxis"><stop offset="0%" stop-color="rgb(0, 128, 0)" stop-opacity="1"/><stop offset="50%" stop-color="rgb(255, 255, 255)" stop-opacity="1"/><stop offset="100%" stop-color="rgb(255, 0, 0)" stop-opacity="1"/></linearGradient></g><g class="patterns"/></defs><g class="bglayer"><rect class="bg" x="80" y="100" width="474" height="420" style="fill: rgb(229, 236, 246); fill-opacity: 1; stroke-width: 0;"/></g><g class="layer-below"><g class="imagelayer"/><g class="shapelayer"/></g><g class="cartesianlayer"><g class="subplot xy"><g class="layer-subplot"><g class="shapelayer"/><g class="imagelayer"/></g><g class="minor-gridlayer"><g class="x"/><g class="y"/></g><g class="gridlayer"><g class="x"><path class="xgrid crisp" transform="translate(87.18,0)" d="M0,100v420" style="stroke: rgb(255, 255, 255); stroke-opacity: 1; stroke-width: 1px;"/><path class="xgrid crisp" transform="translate(146.44,0)" d="M0,100v420" style="stroke: rgb(255, 255, 255); stroke-opacity: 1; stroke-width: 1px;"/><path class="xgrid crisp" transform="translate(188.48000000000002,0)" d="M0,100v420" style="stroke: rgb(255, 255, 255); stroke-opacity: 1; stroke-width: 1px;"/><path class="xgrid crisp" transform="translate(221.09,0)" d="M0,100v420" style="stroke: rgb(255, 255, 255); stroke-opacity: 1; stroke-width: 1px;"/><path class="xgrid crisp" transform="translate(247.74,0)" d="M0,100v420" style="stroke: rgb(255, 255, 255); stroke-opacity: 1; stroke-width: 1px;"/><path class="xgrid crisp" transform="translate(270.26,0)" d="M0,100v420" style="stroke: rgb(255, 255, 255); stroke-opacity: 1; stroke-width: 1px;"/><path class="xgrid crisp" transform="translate(289.78,0)" d="M0,100v420" style="stroke: rgb(255, 255, 255); stroke-opacity: 1; stroke-width: 1px;"/><path class="xgrid crisp" transform="translate(306.99,0)" d="M0,100v420" style="stroke: rgb(255, 255, 255); stroke-opacity: 1; stroke-width: 1px;"/><path class="xgrid crisp" transform="translate(322.39,0)" d="M0,100v420" style="stroke: rgb(255, 255, 255); stroke-opacity: 1; stroke-width: 1px;"/><path class="xgrid crisp" transform="translate(423.69,0)" d="M0,100v420" style="stroke: rgb(255, 255, 255); stroke-opacity: 1; stroke-width: 1px;"/><path class="xgrid crisp" transform="translate(482.95,0)" d="M0,100v420" style="stroke: rgb(255, 255, 255); stroke-opacity: 1; stroke-width: 1px;"/><path class="xgrid crisp" transform="translate(524.99,0)" d="M0,100v420" style="stroke: rgb(255, 255, 255); stroke-opacity: 1; stroke-width: 1px;"/></g><g class="y"><path class="ygrid crisp" transform="translate(0,477.31)" d="M80,0h474" style="stroke: rgb(255, 255, 255); stroke-opacity: 1; stroke-width: 1px;"/><path class="ygrid crisp" transform="translate(0,418.47)" d="M80,0h474" style="stroke: rgb(255, 255, 255); stroke-opacity: 1; stroke-width: 1px;"/><path class="ygrid crisp" transform="translate(0,362.81)" d="M80,0h474" style="stroke: rgb(255, 255, 255); stroke-opacity: 1; stroke-width: 1px;"/><path class="ygrid crisp" transform="translate(0,310)" d="M80,0h474" style="stroke: rgb(255, 255, 255); stroke-opacity: 1; stroke-width: 1px;"/><path class="ygrid crisp" transform="translate(0,259.77)" d="M80,0h474" style="stroke: rgb(255, 255, 255); stroke-opacity: 1; stroke-width: 1px;"/><path class="ygrid crisp" transform="translate(0,211.88)" d="M80,0h474" style="stroke: rgb(255, 255, 255); stroke-opacity: 1; stroke-width: 1px;"/><path class="ygrid crisp" transform="translate(0,166.12)" d="M80,0h474" style="stroke: rgb(255, 255, 255); stroke-opacity: 1; stroke-width: 1px;"/><path class="ygrid crisp" transform="translate(0,122.3)" d="M80,0h474" style="stroke: rgb(255, 255, 255); stroke-opacity: 1; stroke-width: 1px;"/></g></g><g class="zerolinelayer"/><g class="layer-between"><g class="shapelayer"/><g class="imagelayer"/></g><path class="xlines-below"/><path class="ylines-below"/><g class="overlines-below"/><g class="xaxislayer-below"/><g class="yaxislayer-below"/><g class="overaxes-below"/><g class="overplot"><g class="xy" transform="translate(80,100)" clip-path="url(#clip89c093xyplot)"><g class="scatterlayer mlayer"><g class="trace scatter tracec417a2" style="stroke-miterlimit: 2; opacity: 1;"><g class="fills"/><g class="errorbars"/><g class="lines"/><g class="points"><path class="point" transform="translate(223.05,281.77)" d="M4,0A4,4 0 1,1 0,-4A4,4 0 0,1 4,0Z" style="opacity: 1; stroke-width: 0.5px; fill: rgb(137, 196, 137); fill-opacity: 1; stroke: rgb(47, 79, 79); stroke-opacity: 1;"/><path class="point" transform="translate(234.88,314.05)" d="M4,0A4,4 0 1,1 0,-4A4,4 0 0,1 4,0Z" style="opacity: 1; stroke-width: 0.5px; fill: rgb(73, 164, 73); fill-opacity: 1; stroke: rgb(47, 79, 79); stroke-opacity: 1;"/><path class="point" transform="translate(240.17,259.62)" d="M4,0A4,4 0 1,1 0,-4A4,4 0 0,1 4,0Z" style="opacity: 1; stroke-width: 0.5px; fill: rgb(162, 209, 162); fill-opacity: 1; stroke: rgb(47, 79, 79); stroke-opacity: 1;"/><path class="point" transform="translate(253.91,262.82)" d="M4,0A4,4 0 1,1 0,-4A4,4 0 0,1 4,0Z" style="opacity: 1; stroke-width: 0.5px; fill: rgb(147, 201, 147); fill-opacity: 1; stroke: rgb(47, 79, 79); stroke-opacity: 1;"/><path class="point" transform="translate(28.7,282.33)" d="M4,0A4,4 0 1,1 0,-4A4,4 0 0,1 4,0Z" style="opacity: 1; stroke-width: 0.5px; fill: rgb(224, 239, 224); fill-opacity: 1; stroke: rgb(47, 79, 79); stroke-opacity: 1;"/><path class="point" transform="translate(31.11,269.76)" d="M4,0A4,4 0 1,1 0,-4A4,4 0 0,1 4,0Z" style="opacity: 1; stroke-width: 0.5px; fill: rgb(228, 242, 228); fill-opacity: 1; stroke: rgb(47, 79, 79); stroke-opacity: 1;"/><path class="point" transform="translate(148.77,285.04)" d="M4,0A4,4 0 1,1 0,-4A4,4 0 0,1 4,0Z" style="opacity: 1; stroke-width: 0.5px; fill: rgb(181, 218, 181); fill-opacity: 1; stroke: rgb(47, 79, 79); stroke-opacity: 1;"/><path class="point" transform="translate(152.81,217.8)" d="M4,0A4,4 0 1,1 0,-4A4,4 0 0,1 4,0Z" style="opacity: 1; stroke-width: 0.5px; fill: rgb(247, 251, 247); fill-opacity: 1; stroke: rgb(47, 79, 79); stroke-opacity: 1;"/><path class="point" transform="translate(200.08,297.72)" d="M4,0A4,4 0 1,1 0,-4A4,4 0 0,1 4,0Z" style="opacity: 1; stroke-width: 0.5px; fill: rgb(133, 194, 133); fill-opacity: 1; stroke: rgb(47, 79, 79); stroke-opacity: 1;"/><path class="point" transform="translate(200.15,287.78)" d="M4,0A4,4 0 1,1 0,-4A4,4 0 0,1 4,0Z" style="opacity: 1; stroke-width: 0.5px; fill: rgb(146, 201, 146); fill-opacity: 1; stroke: rgb(47, 79, 79); stroke-opacity: 1;"/><path class="point" transform="translate(330.6,249.93)" d="M4,0A4,4 0 1,1 0,-4A4,4 0 0,1 4,0Z" style="opacity: 1; stroke-width: 0.5px; fill: rgb(116, 186, 116); fill-opacity: 1; stroke: rgb(47, 79, 79); stroke-opacity: 1;"/><path class="point" transform="translate(333.28,251.6)" d="M4,0A4,4 0 1,1 0,-4A4,4 0 0,1 4,0Z" style="opacity: 1; stroke-width: 0.5px; fill: rgb(108, 182, 108); fill-opacity: 1; stroke: rgb(47, 79, 79); stroke-opacity: 1;"/><path class="point" transform="translate(131.48,281.61)" d="M4,0A4,4 0 1,1 0,-4A4,4 0 0,1 4,0Z" style="opacity: 1; stroke-width: 0.5px; fill: rgb(192, 224, 192); fill-opacity: 1; stroke: rgb(47, 79, 79); stroke-opacity: 1;"/><path class="point" transform="translate(132.88,280.99)" d="M4,0A4,4 0 1,1 0,-4A4,4 0 0,1 4,0Z" style="opacity: 1; stroke-width: 0.5px; fill: rgb(192, 224, 192); fill-opacity: 1; stroke: rgb(47, 79, 79); stroke-opacity: 1;"/><path class="point" transform="translate(122.55,300.09)" d="M4,0A4,4 0 1,1 0,-4A4,4 0 0,1 4,0Z" style="opacity: 1; stroke-width: 0.5px; fill: rgb(181, 218, 181); fill-opacity: 1; stroke: rgb(47, 79, 79); stroke-opacity: 1;"/><path class="point" transform="translate(124.63,302.69)" d="M4,0A4,4 0 1,1 0,-4A4,4 0 0,1 4,0Z" style="opacity: 1; stroke-width: 0.5px; fill: rgb(178, 217, 178); fill-opacity: 1; stroke: rgb(47, 79, 79); stroke-opacity: 1;"/><path class="point" transform="translate(139.37,288.74)" d="M4,0A4,4 0 1,1 0,-4A4,4 0 0,1 4,0Z" style="opacity: 1; stroke-width: 0.5px; fill: rgb(182, 219, 182); fill-opacity: 1; stroke: rgb(47, 79, 79); stroke-opacity: 1;"/><path class="point" transform="translate(158.55,317.94)" d="M4,0A4,4 0 1,1 0,-4A4,4 0 0,1 4,0Z" style="opacity: 1; stroke-width: 0.5px; fill: rgb(143, 199, 143); fill-opacity: 1; stroke: rgb(47, 79, 79); stroke-opacity: 1;"/><path class="point" transform="translate(232.48,183.88)" d="M4,0A4,4 0 1,1 0,-4A4,4 0 0,1 4,0Z" style="opacity: 1; stroke-width: 0.5px; fill: rgb(255, 207, 207); fill-opacity: 1; stroke: rgb(47, 79, 79); stroke-opacity: 1;"/><path class="point" transform="translate(241.78,195.38)" d="M4,0A4,4 0 1,1 0,-4A4,4 0 0,1 4,0Z" style="opacity: 1; stroke-width: 0.5px; fill: rgb(255, 227, 227); fill-opacity: 1; stroke: rgb(47, 79, 79); stroke-opacity: 1;"/><path class="point" transform="translate(100.54,280.16)" d="M4,0A4,4 0 1,1 0,-4A4,4 0 0,1 4,0Z" style="opacity: 1; stroke-width: 0.5px; fill: rgb(205, 230, 205); fill-opacity: 1; stroke: rgb(47, 79, 79); stroke-opacity: 1;"/><path class="point" transform="translate(112.13,283.34)" d="M4,0A4,4 0 1,1 0,-4A4,4 0 0,1 4,0Z" style="opacity: 1; stroke-width: 0.5px; fill: rgb(199, 227, 199); fill-opacity: 1; stroke: rgb(47, 79, 79); stroke-opacity: 1;"/><path class="point" transform="translate(151.1,339.63)" d="M4,0A4,4 0 1,1 0,-4A4,4 0 0,1 4,0Z" style="opacity: 1; stroke-width: 0.5px; fill: rgb(129, 192, 129); fill-opacity: 1; stroke: rgb(47, 79, 79); stroke-opacity: 1;"/><path class="point" transform="translate(175.49,390.8)" d="M4,0A4,4 0 1,1 0,-4A4,4 0 0,1 4,0Z" style="opacity: 1; stroke-width: 0.5px; fill: rgb(52, 154, 52); fill-opacity: 1; stroke: rgb(47, 79, 79); stroke-opacity: 1;"/><path class="point" transform="translate(174.63,391.56)" d="M4,0A4,4 0 1,1 0,-4A4,4 0 0,1 4,0Z" style="opacity: 1; stroke-width: 0.5px; fill: rgb(52, 154, 52); fill-opacity: 1; stroke: rgb(47, 79, 79); stroke-opacity: 1;"/><path class="point" transform="translate(175.09,410)" d="M4,0A4,4 0 1,1 0,-4A4,4 0 0,1 4,0Z" style="opacity: 1; stroke-width: 0.5px; fill: rgb(33, 144, 33); fill-opacity: 1; stroke: rgb(47, 79, 79); stroke-opacity: 1;"/><path class="point" transform="translate(432.84,238.23)" d="M4,0A4,4 0 1,1 0,-4A4,4 0 0,1 4,0Z" style="opacity: 1; stroke-width: 0.5px; fill: rgb(56, 156, 56); fill-opacity: 1; stroke: rgb(47, 79, 79); stroke-opacity: 1;"/><path class="point" transform="translate(440.45,254.99)" d="M4,0A4,4 0 1,1 0,-4A4,4 0 0,1 4,0Z" style="opacity: 1; stroke-width: 0.5px; fill: rgb(0, 128, 0); fill-opacity: 1; stroke: rgb(47, 79, 79); stroke-opacity: 1;"/><path class="point" transform="translate(445.3,279.07)" d="M4,0A4,4 0 1,1 0,-4A4,4 0 0,1 4,0Z" style="opacity: 1; stroke-width: 0.5px; fill: rgb(0, 128, 0); fill-opacity: 1; stroke: rgb(47, 79, 79); stroke-opacity: 1;"/><path class="point" transform="translate(104.52,323.37)" d="M4,0A4,4 0 1,1 0,-4A4,4 0 0,1 4,0Z" style="opacity: 1; stroke-width: 0.5px; fill: rgb(174, 215, 174); fill-opacity: 1; stroke: rgb(47, 79, 79); stroke-opacity: 1;"/><path class="point" transform="translate(105.38,323.58)" d="M4,0A4,4 0 1,1 0,-4A4,4 0 0,1 4,0Z" style="opacity: 1; stroke-width: 0.5px; fill: rgb(173, 214, 173); fill-opacity: 1; stroke: rgb(47, 79, 79); stroke-opacity: 1;"/><path class="point" transform="translate(108.49,337.11)" d="M4,0A4,4 0 1,1 0,-4A4,4 0 0,1 4,0Z" style="opacity: 1; stroke-width: 0.5px; fill: rgb(162, 209, 162); fill-opacity: 1; stroke: rgb(47, 79, 79); stroke-opacity: 1;"/><path class="point" transform="translate(106.86,318.87)" d="M4,0A4,4 0 1,1 0,-4A4,4 0 0,1 4,0Z" style="opacity: 1; stroke-width: 0.5px; fill: rgb(176, 216, 176); fill-opacity: 1; stroke: rgb(47, 79, 79); stroke-opacity: 1;"/><path class="point" transform="translate(159.92,277.32)" d="M4,0A4,4 0 1,1 0,-4A4,4 0 0,1 4,0Z" style="opacity: 1; stroke-width: 0.5px; fill: rgb(183, 219, 183); fill-opacity: 1; stroke: rgb(47, 79, 79); stroke-opacity: 1;"/><path class="point" transform="translate(210.38,175.21)" d="M4,0A4,4 0 1,1 0,-4A4,4 0 0,1 4,0Z" style="opacity: 1; stroke-width: 0.5px; fill: rgb(255, 200, 200); fill-opacity: 1; stroke: rgb(47, 79, 79); stroke-opacity: 1;"/></g><g class="text"/></g></g></g></g><g class="zerolinelayer-above"/><path class="xlines-above crisp" d="M0,0" style="fill: none;"/><path class="ylines-above crisp" d="M0,0" style="fill: none;"/><g class="overlines-above"/><g class="xaxislayer-above"><g class="xtick"><text text-anchor="middle" x="0" y="530" transform="translate(87.18,0)" style="font-family: 'Open Sans', verdana, arial, sans-serif; font-size: 9px; fill: rgb(42, 63, 95); fill-opacity: 1; white-space: pre;">2</text></g><g class="xtick"><text text-anchor="middle" x="0" y="530" style="font-family: 'Open Sans', verdana, arial, sans-serif; font-size: 9px; fill: rgb(42, 63, 95); fill-opacity: 1; white-space: pre;" transform="translate(146.44,0)">3</text></g><g class="xtick"><text text-anchor="middle" x="0" y="530" style="font-family: 'Open Sans', verdana, arial, sans-serif; font-size: 9px; fill: rgb(42, 63, 95); fill-opacity: 1; white-space: pre;" transform="translate(188.48000000000002,0)">4</text></g><g class="xtick"><text text-anchor="middle" x="0" y="530" style="font-family: 'Open Sans', verdana, arial, sans-serif; font-size: 9px; fill: rgb(42, 63, 95); fill-opacity: 1; white-space: pre;" transform="translate(221.09,0)">5</text></g><g class="xtick"><text text-anchor="middle" x="0" y="530" style="font-family: 'Open Sans', verdana, arial, sans-serif; font-size: 9px; fill: rgb(42, 63, 95); fill-opacity: 1; white-space: pre;" transform="translate(247.74,0)">6</text></g><g class="xtick"><text text-anchor="middle" x="0" y="530" style="font-family: 'Open Sans', verdana, arial, sans-serif; font-size: 9px; fill: rgb(42, 63, 95); fill-opacity: 1; white-space: pre;" transform="translate(270.26,0)">7</text></g><g class="xtick"><text text-anchor="middle" x="0" y="530" style="font-family: 'Open Sans', verdana, arial, sans-serif; font-size: 9px; fill: rgb(42, 63, 95); fill-opacity: 1; white-space: pre;" transform="translate(289.78,0)">8</text></g><g class="xtick"><text text-anchor="middle" x="0" y="530" style="font-family: 'Open Sans', verdana, arial, sans-serif; font-size: 9px; fill: rgb(42, 63, 95); fill-opacity: 1; white-space: pre;" transform="translate(306.99,0)">9</text></g><g class="xtick"><text text-anchor="middle" x="6" y="539" style="font-family: 'Open Sans', verdana, arial, sans-serif; font-size: 12px; fill: rgb(42, 63, 95); fill-opacity: 1; white-space: pre;" transform="translate(322.39,0)">0.1</text></g><g class="xtick"><text text-anchor="middle" x="0" y="530" style="font-family: 'Open Sans', verdana, arial, sans-serif; font-size: 9px; fill: rgb(42, 63, 95); fill-opacity: 1; white-space: pre;" transform="translate(423.69,0)">2</text></g><g class="xtick"><text text-anchor="middle" x="0" y="530" style="font-family: 'Open Sans', verdana, arial, sans-serif; font-size: 9px; fill: rgb(42, 63, 95); fill-opacity: 1; white-space: pre;" transform="translate(482.95,0)">3</text></g><g class="xtick"><text text-anchor="middle" x="0" y="530" style="font-family: 'Open Sans', verdana, arial, sans-serif; font-size: 9px; fill: rgb(42, 63, 95); fill-opacity: 1; white-space: pre;" transform="translate(524.99,0)">4</text></g></g><g class="yaxislayer-above"><g class="ytick"><text text-anchor="end" x="79" y="4.199999999999999" transform="translate(0,477.31)" style="font-family: 'Open Sans', verdana, arial, sans-serif; font-size: 12px; fill: rgb(42, 63, 95); fill-opacity: 1; white-space: pre;">0.85</text></g><g class="ytick"><text text-anchor="end" x="79" y="4.199999999999999" style="font-family: 'Open Sans', verdana, arial, sans-serif; font-size: 12px; fill: rgb(42, 63, 95); fill-opacity: 1; white-space: pre;" transform="translate(0,418.47)">0.9</text></g><g class="ytick"><text text-anchor="end" x="79" y="4.199999999999999" style="font-family: 'Open Sans', verdana, arial, sans-serif; font-size: 12px; fill: rgb(42, 63, 95); fill-opacity: 1; white-space: pre;" transform="translate(0,362.81)">0.95</text></g><g class="ytick"><text text-anchor="end" x="79" y="4.199999999999999" style="font-family: 'Open Sans', verdana, arial, sans-serif; font-size: 12px; fill: rgb(42, 63, 95); fill-opacity: 1; white-space: pre;" transform="translate(0,310)">1</text></g><g class="ytick"><text text-anchor="end" x="79" y="4.199999999999999" style="font-family: 'Open Sans', verdana, arial, sans-serif; font-size: 12px; fill: rgb(42, 63, 95); fill-opacity: 1; white-space: pre;" transform="translate(0,259.77)">1.05</text></g><g class="ytick"><text text-anchor="end" x="79" y="4.199999999999999" style="font-family: 'Open Sans', verdana, arial, sans-serif; font-size: 12px; fill: rgb(42, 63, 95); fill-opacity: 1; white-space: pre;" transform="translate(0,211.88)">1.1</text></g><g class="ytick"><text text-anchor="end" x="79" y="4.199999999999999" style="font-family: 'Open Sans', verdana, arial, sans-serif; font-size: 12px; fill: rgb(42, 63, 95); fill-opacity: 1; white-space: pre;" transform="translate(0,166.12)">1.15</text></g><g class="ytick"><text text-anchor="end" x="79" y="4.199999999999999" style="font-family: 'Open Sans', verdana, arial, sans-serif; font-size: 12px; fill: rgb(42, 63, 95); fill-opacity: 1; white-space: pre;" transform="translate(0,122.3)">1.2</text></g></g><g class="overaxes-above"/></g></g><g class="polarlayer"/><g class="smithlayer"/><g class="ternarylayer"/><g class="geolayer"/><g class="funnelarealayer"/><g class="pielayer"/><g class="iciclelayer"/><g class="treemaplayer"/><g class="sunburstlayer"/><g class="glimages"/><defs id="topdefs-89c093"><g class="clips"/></defs><g class="layer-above"><g class="imagelayer"/><g class="shapelayer"><g class="shape-group" data-index="0" clip-path="url(#clip89c093y)"><path data-index="0" fill-rule="evenodd" d="M80,310L554,310" style="opacity: 1; stroke: rgb(128, 128, 128); stroke-opacity: 1; fill: rgb(0, 0, 0); fill-opacity: 0; stroke-dasharray: 9px, 9px; stroke-width: 2px;"/></g></g></g><g class="infolayer"><g class="cbcoloraxis colorbar" transform="translate(80,100)"><rect class="cbbg" x="483" y="0" width="124.76171875" height="420" style="fill: rgb(0, 0, 0); fill-opacity: 0; stroke: rgb(68, 68, 68); stroke-opacity: 1; stroke-width: 0;"/><g class="cbfills" transform="translate(0,31)"><rect class="cbfill gradient_filled" style="fill: url('#g89c093-cbcoloraxis');" x="493" y="0" width="30" height="379"/></g><g class="cblines" transform="translate(0,31)"/><g class="cbaxis crisp" transform="translate(0,-100)"><g class="ycbcoloraxistick"><text text-anchor="start" x="525.9" y="4.199999999999999" transform="translate(0,468.86)" style="font-family: 'Open Sans', verdana, arial, sans-serif; font-size: 12px; fill: rgb(42, 63, 95); fill-opacity: 1; white-space: pre;">−0.01</text></g><g class="ycbcoloraxistick"><text text-anchor="start" x="525.9" y="4.199999999999999" style="font-family: 'Open Sans', verdana, arial, sans-serif; font-size: 12px; fill: rgb(42, 63, 95); fill-opacity: 1; white-space: pre;" transform="translate(0,394.68000000000006)">−0.005</text></g><g class="ycbcoloraxistick"><text text-anchor="start" x="525.9" y="4.199999999999999" style="font-family: 'Open Sans', verdana, arial, sans-serif; font-size: 12px; fill: rgb(42, 63, 95); fill-opacity: 1; white-space: pre;" transform="translate(0,320.5)">0</text></g><g class="ycbcoloraxistick"><text text-anchor="start" x="525.9" y="4.199999999999999" style="font-family: 'Open Sans', verdana, arial, sans-serif; font-size: 12px; fill: rgb(42, 63, 95); fill-opacity: 1; white-space: pre;" transform="translate(0,246.32000000000002)">0.005</text></g><g class="ycbcoloraxistick"><text text-anchor="start" x="525.9" y="4.199999999999999" style="font-family: 'Open Sans', verdana, arial, sans-serif; font-size: 12px; fill: rgb(42, 63, 95); fill-opacity: 1; white-space: pre;" transform="translate(0,172.14000000000004)">0.01</text></g></g><g class="cbtitleunshift" transform="translate(-80,-100)"><g class="cbtitle" transform=""><text class="ycbcoloraxistitle" x="573.48" y="123.5" text-anchor="start" style="opacity: 1; font-family: 'Open Sans', verdana, arial, sans-serif; font-size: 14px; fill: rgb(42, 63, 95); fill-opacity: 1; white-space: pre;">Δ time (seconds)</text></g></g><rect class="cboutline" x="493" y="31" width="30" height="379" style="stroke: rgb(68, 68, 68); stroke-opacity: 1; fill: none; stroke-width: 0;"/></g><g class="g-gtitle"><text class="gtitle" x="35" y="50" text-anchor="start" dy="0em" style="opacity: 1; font-family: 'Open Sans', verdana, arial, sans-serif; font-size: 17px; fill: rgb(42, 63, 95); fill-opacity: 1; white-space: pre;">time: candidate vs baseline (legacy) — top-right = regressed</text></g><g class="g-xtitle"><text class="xtitle" x="317" y="566.3" text-anchor="middle" style="opacity: 1; font-family: 'Open Sans', verdana, arial, sans-serif; font-size: 14px; fill: rgb(42, 63, 95); fill-opacity: 1; white-space: pre;">baseline time (seconds), log</text></g><g class="g-ytitle"><text class="ytitle" transform="rotate(-90,36.240625,310)" x="36.240625" y="310" text-anchor="middle" style="opacity: 1; font-family: 'Open Sans', verdana, arial, sans-serif; font-size: 14px; fill: rgb(42, 63, 95); fill-opacity: 1; white-space: pre;">ratio: candidate / baseline (log)</text></g></g></svg>