<svg class="main-svg" xmlns="http://www.w3.org/2000/svg" xmlns:xlink="http://www.w3.org/1999/xlink" width="700" height="600" style="" viewBox="0 0 700 600"><rect x="0" y="0" width="700" height="600" style="fill: rgb(255, 255, 255); fill-opacity: 1;"/><defs id="defs-e5eaf8"><g class="clips"><clipPath id="clipe5eaf8xyplot" class="plotclip"><rect width="474" height="420"/></clipPath><clipPath class="axesclip" id="clipe5eaf8x"><rect x="80" y="0" width="474" height="600"/></clipPath><clipPath class="axesclip" id="clipe5eaf8y"><rect x="0" y="100" width="700" height="420"/></clipPath><clipPath class="axesclip" id="clipe5eaf8xy"><rect x="80" y="100" width="474" height="420"/></clipPath></g><g class="gradients"><linearGradient x1="0" y1="1" x2="0" y2="0" gradientUnits="objectBoundingBox" id="ge5eaf8-cbcoloraxis"><stop offset="0%" stop-color="rgb(0, 128, 0)" stop-opacity="1"/><stop offset="50%" stop-color="rgb(255, 255, 255)" stop-opacity="1"/><stop offset="100%" stop-color="rgb(255, 0, 0)" stop-opacity="1"/></linearGradient></g><g class="patterns"/></defs><g class="bglayer"><rect class="bg" x="80" y="100" width="474" height="420" style="fill: rgb(229, 236, 246); fill-opacity: 1; stroke-width: 0;"/></g><g class="layer-below"><g class="imagelayer"/><g class="shapelayer"/></g><g class="cartesianlayer"><g class="subplot xy"><g class="layer-subplot"><g class="shapelayer"/><g class="imagelayer"/></g><g class="minor-gridlayer"><g class="x"/><g class="y"/></g><g class="gridlayer"><g class="x"><path class="xgrid crisp" transform="translate(103.37,0)" d="M0,100v420" style="stroke: rgb(255, 255, 255); stroke-opacity: 1; stroke-width: 1px;"/><path class="xgrid crisp" transform="translate(161,0)" d="M0,100v420" style="stroke: rgb(255, 255, 255); stroke-opacity: 1; stroke-width: 1px;"/><path class="xgrid crisp" transform="translate(201.9,0)" d="M0,100v420" style="stroke: rgb(255, 255, 255); stroke-opacity: 1; stroke-width: 1px;"/><path class="xgrid crisp" transform="translate(233.62,0)" d="M0,100v420" style="stroke: rgb(255, 255, 255); stroke-opacity: 1; stroke-width: 1px;"/><path class="xgrid crisp" transform="translate(259.53999999999996,0)" d="M0,100v420" style="stroke: rgb(255, 255, 255); stroke-opacity: 1; stroke-width: 1px;"/><path class="xgrid crisp" transform="translate(281.45,0)" d="M0,100v420" style="stroke: rgb(255, 255, 255); stroke-opacity: 1; stroke-width: 1px;"/><path class="xgrid crisp" transform="translate(300.43,0)" d="M0,100v420" style="stroke: rgb(255, 255, 255); stroke-opacity: 1; stroke-width: 1px;"/><path class="xgrid crisp" transform="translate(317.18,0)" d="M0,100v420" style="stroke: rgb(255, 255, 255); stroke-opacity: 1; stroke-width: 1px;"/><path class="xgrid crisp" transform="translate(332.15999999999997,0)" d="M0,100v420" style="stroke: rgb(255, 255, 255); stroke-opacity: 1; stroke-width: 1px;"/><path class="xgrid crisp" transform="translate(430.69,0)" d="M0,100v420" style="stroke: rgb(255, 255, 255); stroke-opacity: 1; stroke-width: 1px;"/><path class="xgrid crisp" transform="translate(488.33,0)" d="M0,100v420" style="stroke: rgb(255, 255, 255); stroke-opacity: 1; stroke-width: 1px;"/><path class="xgrid crisp" transform="translate(529.23,0)" d="M0,100v420" style="stroke: rgb(255, 255, 255); stroke-opacity: 1; stroke-width: 1px;"/></g><g class="y"><path class="ygrid crisp" transform="translate(0,510.15)" d="M80,0h474" style="stroke: rgb(255, 255, 255); stroke-opacity: 1; stroke-width: 1px;"/><path class="ygrid crisp" transform="translate(0,455.77)" d="M80,0h474" style="stroke: rgb(255, 255, 255); stroke-opacity: 1; stroke-width: 1px;"/><path class="ygrid crisp" transform="translate(0,404.5)" d="M80,0h474" style="stroke: rgb(255, 255, 255); stroke-opacity: 1; stroke-width: 1px;"/><path class="ygrid crisp" transform="translate(0,356.01)" d="M80,0h474" style="stroke: rgb(255, 255, 255); stroke-opacity: 1; stroke-width: 1px;"/><path class="ygrid crisp" transform="translate(0,310)" d="M80,0h474" style="stroke: rgb(255, 255, 255); stroke-opacity: 1; stroke-width: 1px;"/><path class="ygrid crisp" transform="translate(0,266.24)" d="M80,0h474" style="stroke: rgb(255, 255, 255); stroke-opacity: 1; stroke-width: 1px;"/><path class="ygrid crisp" transform="translate(0,224.51)" d="M80,0h474" style="stroke: rgb(255, 255, 255); stroke-opacity: 1; stroke-width: 1px;"/><path class="ygrid crisp" transform="translate(0,184.64)" d="M80,0h474" style="stroke: rgb(255, 255, 255); stroke-opacity: 1; stroke-width: 1px;"/><path class="ygrid crisp" transform="translate(0,146.47)" d="M80,0h474" style="stroke: rgb(255, 255, 255); stroke-opacity: 1; stroke-width: 1px;"/><path class="ygrid crisp" transform="translate(0,109.85)" d="M80,0h474" style="stroke: rgb(255, 255, 255); stroke-opacity: 1; stroke-width: 1px;"/></g></g><g class="zerolinelayer"/><g class="layer-between"><g class="shapelayer"/><g class="imagelayer"/></g><path class="xlines-below"/><path class="ylines-below"/><g class="overlines-below"/><g class="xaxislayer-below"/><g class="yaxislayer-below"/><g class="overaxes-below"/><g class="overplot"><g class="xy" transform="translate(80,100)" clip-path="url(#clipe5eaf8xyplot)"><g class="scatterlayer mlayer"><g class="trace scatter trace61957c" style="stroke-miterlimit: 2; opacity: 1;"><g class="fills"/><g class="errorbars"/><g class="lines"/><g class="points"><path class="point" transform="translate(233.45,282.14)" d="M4,0A4,4 0 1,1 0,-4A4,4 0 0,1 4,0Z" style="opacity: 1; stroke-width: 0.5px; fill: rgb(184, 220, 184); fill-opacity: 1; stroke: rgb(47, 79, 79); stroke-opacity: 1;"/><path class="point" transform="translate(243.01,297.98)" d="M4,0A4,4 0 1,1 0,-4A4,4 0 0,1 4,0Z" style="opacity: 1; stroke-width: 0.5px; fill: rgb(164, 209, 164); fill-opacity: 1; stroke: rgb(47, 79, 79); stroke-opacity: 1;"/><path class="point" transform="translate(250.69,279.28)" d="M4,0A4,4 0 1,1 0,-4A4,4 0 0,1 4,0Z" style="opacity: 1; stroke-width: 0.5px; fill: rgb(178, 217, 178); fill-opacity: 1; stroke: rgb(47, 79, 79); stroke-opacity: 1;"/><path class="point" transform="translate(262.4,277.31)" d="M4,0A4,4 0 1,1 0,-4A4,4 0 0,1 4,0Z" style="opacity: 1; stroke-width: 0.5px; fill: rgb(174, 215, 174); fill-opacity: 1; stroke: rgb(47, 79, 79); stroke-opacity: 1;"/><path class="point" transform="translate(44.39,289.92)" d="M4,0A4,4 0 1,1 0,-4A4,4 0 0,1 4,0Z" style="opacity: 1; stroke-width: 0.5px; fill: rgb(234, 245, 234); fill-opacity: 1; stroke: rgb(47, 79, 79); stroke-opacity: 1;"/><path class="point" transform="translate(47.11,284.08)" d="M4,0A4,4 0 1,1 0,-4A4,4 0 0,1 4,0Z" style="opacity: 1; stroke-width: 0.5px; fill: rgb(235, 245, 235); fill-opacity: 1; stroke: rgb(47, 79, 79); stroke-opacity: 1;"/><path class="point" transform="translate(163.2,315.77)" d="M4,0A4,4 0 1,1 0,-4A4,4 0 0,1 4,0Z" style="opacity: 1; stroke-width: 0.5px; fill: rgb(193, 224, 193); fill-opacity: 1; stroke: rgb(47, 79, 79); stroke-opacity: 1;"/><path class="point" transform="translate(164.63,233.2)" d="M4,0A4,4 0 1,1 0,-4A4,4 0 0,1 4,0Z" style="opacity: 1; stroke-width: 0.5px; fill: rgb(241, 248, 241); fill-opacity: 1; stroke: rgb(47, 79, 79); stroke-opacity: 1;"/><path class="point" transform="translate(211.97,304.16)" d="M4,0A4,4 0 1,1 0,-4A4,4 0 0,1 4,0Z" style="opacity: 1; stroke-width: 0.5px; fill: rgb(177, 216, 177); fill-opacity: 1; stroke: rgb(47, 79, 79); stroke-opacity: 1;"/><path class="point" transform="translate(212.16,305.24)" d="M4,0A4,4 0 1,1 0,-4A4,4 0 0,1 4,0Z" style="opacity: 1; stroke-width: 0.5px; fill: rgb(176, 215, 176); fill-opacity: 1; stroke: rgb(47, 79, 79); stroke-opacity: 1;"/><path class="point" transform="translate(338.78,267.52)" d="M4,0A4,4 0 1,1 0,-4A4,4 0 0,1 4,0Z" style="opacity: 1; stroke-width: 0.5px; fill: rgb(136, 196, 136); fill-opacity: 1; stroke: rgb(47, 79, 79); stroke-opacity: 1;"/><path class="point" transform="translate(340.8,262.5)" d="M4,0A4,4 0 1,1 0,-4A4,4 0 0,1 4,0Z" style="opacity: 1; stroke-width: 0.5px; fill: rgb(144, 200, 144); fill-opacity: 1; stroke: rgb(47, 79, 79); stroke-opacity: 1;"/><path class="point" transform="translate(144,281.58)" d="M4,0A4,4 0 1,1 0,-4A4,4 0 0,1 4,0Z" style="opacity: 1; stroke-width: 0.5px; fill: rgb(218, 236, 218); fill-opacity: 1; stroke: rgb(47, 79, 79); stroke-opacity: 1;"/><path class="point" transform="translate(145.34,282.18)" d="M4,0A4,4 0 1,1 0,-4A4,4 0 0,1 4,0Z" style="opacity: 1; stroke-width: 0.5px; fill: rgb(217, 236, 217); fill-opacity: 1; stroke: rgb(47, 79, 79); stroke-opacity: 1;"/><path class="point" transform="translate(137.74,324.41)" d="M4,0A4,4 0 1,1 0,-4A4,4 0 0,1 4,0Z" style="opacity: 1; stroke-width: 0.5px; fill: rgb(199, 227, 199); fill-opacity: 1; stroke: rgb(47, 79, 79); stroke-opacity: 1;"/><path class="point" transform="translate(141.23,342.4)" d="M4,0A4,4 0 1,1 0,-4A4,4 0 0,1 4,0Z" style="opacity: 1; stroke-width: 0.5px; fill: rgb(189, 222, 189); fill-opacity: 1; stroke: rgb(47, 79, 79); stroke-opacity: 1;"/><path class="point" transform="translate(151.14,297.66)" d="M4,0A4,4 0 1,1 0,-4A4,4 0 0,1 4,0Z" style="opacity: 1; stroke-width: 0.5px; fill: rgb(207, 231, 207); fill-opacity: 1; stroke: rgb(47, 79, 79); stroke-opacity: 1;"/><path class="point" transform="translate(170.64,339.32)" d="M4,0A4,4 0 1,1 0,-4A4,4 0 0,1 4,0Z" style="opacity: 1; stroke-width: 0.5px; fill: rgb(176, 216, 176); fill-opacity: 1; stroke: rgb(47, 79, 79); stroke-opacity: 1;"/><path class="point" transform="translate(242.48,216.27)" d="M4,0A4,4 0 1,1 0,-4A4,4 0 0,1 4,0Z" style="opacity: 1; stroke-width: 0.5px; fill: rgb(248, 252, 248); fill-opacity: 1; stroke: rgb(47, 79, 79); stroke-opacity: 1;"/><path class="point" transform="translate(250.6,205.07)" d="M4,0A4,4 0 1,1 0,-4A4,4 0 0,1 4,0Z" style="opacity: 1; stroke-width: 0.5px; fill: rgb(255, 249, 249); fill-opacity: 1; stroke: rgb(47, 79, 79); stroke-opacity: 1;"/><path class="point" transform="translate(114.94,305.14)" d="M4,0A4,4 0 1,1 0,-4A4,4 0 0,1 4,0Z" style="opacity: 1; stroke-width: 0.5px; fill: rgb(215, 235, 215); fill-opacity: 1; stroke: rgb(47, 79, 79); stroke-opacity: 1;"/><path class="point" transform="translate(128.34,315.9)" d="M4,0A4,4 0 1,1 0,-4A4,4 0 0,1 4,0Z" style="opacity: 1; stroke-width: 0.5px; fill: rgb(206, 231, 206); fill-opacity: 1; stroke: rgb(47, 79, 79); stroke-opacity: 1;"/><path class="point" transform="translate(163.07,292.51)" d="M4,0A4,4 0 1,1 0,-4A4,4 0 0,1 4,0Z" style="opacity: 1; stroke-width: 0.5px; fill: rgb(206, 231, 206); fill-opacity: 1; stroke: rgb(47, 79, 79); stroke-opacity: 1;"/><path class="point" transform="translate(187.99,406.99)" d="M4,0A4,4 0 1,1 0,-4A4,4 0 0,1 4,0Z" style="opacity: 1; stroke-width: 0.5px; fill: rgb(124, 190, 124); fill-opacity: 1; stroke: rgb(47, 79, 79); stroke-opacity: 1;"/><path class="point" transform="translate(186.31,401.82)" d="M4,0A4,4 0 1,1 0,-4A4,4 0 0,1 4,0Z" style="opacity: 1; stroke-width: 0.5px; fill: rgb(129, 192, 129); fill-opacity: 1; stroke: rgb(47, 79, 79); stroke-opacity: 1;"/><path class="point" transform="translate(185.1,410)" d="M4,0A4,4 0 1,1 0,-4A4,4 0 0,1 4,0Z" style="opacity: 1; stroke-width: 0.5px; fill: rgb(125, 190, 125); fill-opacity: 1; stroke: rgb(47, 79, 79); stroke-opacity: 1;"/><path class="point" transform="translate(438.64,275.41)" d="M4,0A4,4 0 1,1 0,-4A4,4 0 0,1 4,0Z" style="opacity: 1; stroke-width: 0.5px; fill: rgb(0, 128, 0); fill-opacity: 1; stroke: rgb(47, 79, 79); stroke-opacity: 1;"/><path class="point" transform="translate(444.99,274.13)" d="M4,0A4,4 0 1,1 0,-4A4,4 0 0,1 4,0Z" style="opacity: 1; stroke-width: 0.5px; fill: rgb(0, 128, 0); fill-opacity: 1; stroke: rgb(47, 79, 79); stroke-opacity: 1;"/><path class="point" transform="translate(445.3,267.47)" d="M4,0A4,4 0 1,1 0,-4A4,4 0 0,1 4,0Z" style="opacity: 1; stroke-width: 0.5px; fill: rgb(3, 130, 3); fill-opacity: 1; stroke: rgb(47, 79, 79); stroke-opacity: 1;"/><path class="point" transform="translate(113.66,310.02)" d="M4,0A4,4 0 1,1 0,-4A4,4 0 0,1 4,0Z" style="opacity: 1; stroke-width: 0.5px; fill: rgb(213, 234, 213); fill-opacity: 1; stroke: rgb(47, 79, 79); stroke-opacity: 1;"/><path class="point" transform="translate(117.96,329.55)" d="M4,0A4,4 0 1,1 0,-4A4,4 0 0,1 4,0Z" style="opacity: 1; stroke-width: 0.5px; fill: rgb(204, 230, 204); fill-opacity: 1; stroke: rgb(47, 79, 79); stroke-opacity: 1;"/><path class="point" transform="translate(116.64,313.94)" d="M4,0A4,4 0 1,1 0,-4A4,4 0 0,1 4,0Z" style="opacity: 1; stroke-width: 0.5px; fill: rgb(211, 233, 211); fill-opacity: 1; stroke: rgb(47, 79, 79); stroke-opacity: 1;"/><path class="point" transform="translate(28.7,239.57)" d="M4,0A4,4 0 1,1 0,-4A4,4 0 0,1 4,0Z" style="opacity: 1; stroke-width: 0.5px; fill: rgb(248, 252, 248); fill-opacity: 1; stroke: rgb(47, 79, 79); stroke-opacity: 1;"/><path class="point" transform="translate(29.2,245.55)" d="M4,0A4,4 0 1,1 0,-4A4,4 0 0,1 4,0Z" style="opacity: 1; stroke-width: 0.5px; fill: rgb(247, 251, 247); fill-opacity: 1; stroke: rgb(47, 79, 79); stroke-opacity: 1;"/><path class="point" transform="translate(30.43,256.72)" d="M4,0A4,4 0 1,1 0,-4A4,4 0 0,1 4,0Z" style="opacity: 1; stroke-width: 0.5px; fill: rgb(244, 249, 244); fill-opacity: 1; stroke: rgb(47, 79, 79); stroke-opacity: 1;"/><path class="point" transform="translate(116.67,304.48)" d="M4,0A4,4 0 1,1 0,-4A4,4 0 0,1 4,0Z" style="opacity: 1; stroke-width: 0.5px; fill: rgb(215, 235, 215); fill-opacity: 1; stroke: rgb(47, 79, 79); stroke-opacity: 1;"/><path class="point" transform="translate(167.33,279.02)" d="M4,0A4,4 0 1,1 0,-4A4,4 0 0,1 4,0Z" style="opacity: 1; stroke-width: 0.5px; fill: rgb(212, 234, 212); fill-opacity: 1; stroke: rgb(47, 79, 79); stroke-opacity: 1;"/><path class="point" transform="translate(218.95,292.27)" d="M4,0A4,4 0 1,1 0,-4A4,4 0 0,1 4,0Z" style="opacity: 1; stroke-width: 0.5px; fill: rgb(183, 219, 183); fill-opacity: 1; stroke: rgb(47, 79, 79); stroke-opacity: 1;"/></g><g class="text"/></g></g></g></g><g class="zerolinelayer-above"/><path class="xlines-above crisp" d="M0,0" style="fill: none;"/><path class="ylines-above crisp" d="M0,0" style="fill: none;"/><g class="overlines-above"/><g class="xaxislayer-above"><g class="xtick"><text text-anchor="middle" x="0" y="530" transform="translate(103.37,0)" style="font-family: 'Open Sans', verdana, arial, sans-serif; font-size: 9px; fill: rgb(42, 63, 95); fill-opacity: 1; white-space: pre;">2</text></g><g class="xtick"><text text-anchor="middle" x="0" y="530" style="font-family: 'Open Sans', verdana, arial, sans-serif; font-size: 9px; fill: rgb(42, 63, 95); fill-opacity: 1; white-space: pre;" transform="translate(161,0)">3</text></g><g class="xtick"><text text-anchor="middle" x="0" y="530" style="font-family: 'Open Sans', verdana, arial, sans-serif; font-size: 9px; fill: rgb(42, 63, 95); fill-opacity: 1; white-space: pre;" transform="translate(201.9,0)">4</text></g><g class="xtick"><text text-anchor="middle" x="0" y="530" style="font-family: 'Open Sans', verdana, arial, sans-serif; font-size: 9px; fill: rgb(42, 63, 95); fill-opacity: 1; white-space: pre;" transform="translate(233.62,0)">5</text></g><g class="xtick"><text text-anchor="middle" x="0" y="530" style="font-family: 'Open Sans', verdana, arial, sans-serif; font-size: 9px; fill: rgb(42, 63, 95); fill-opacity: 1; white-space: pre;" transform="translate(259.53999999999996,0)">6</text></g><g class="xtick"><text text-anchor="middle" x="0" y="530" style="font-family: 'Open Sans', verdana, arial, sans-serif; font-size: 9px; fill: rgb(42, 63, 95); fill-opacity: 1; white-space: pre;" transform="translate(281.45,0)">7</text></g><g class="xtick"><text text-anchor="middle" x="0" y="530" style="font-family: 'Open Sans', verdana, arial, sans-serif; font-size: 9px; fill: rgb(42, 63, 95); fill-opacity: 1; white-space: pre;" transform="translate(300.43,0)">8</text></g><g class="xtick"><text text-anchor="middle" x="0" y="530" style="font-family: 'Open Sans', verdana, arial, sans-serif; font-size: 9px; fill: rgb(42, 63, 95); fill-opacity: 1; white-space: pre;" transform="translate(317.18,0)">9</text></g><g class="xtick"><text text-anchor="middle" x="6" y="539" style="font-family: 'Open Sans', verdana, arial, sans-serif; font-size: 12px; fill: rgb(42, 63, 95); fill-opacity: 1; white-space: pre;" transform="translate(332.15999999999997,0)">0.1</text></g><g class="xtick"><text text-anchor="middle" x="0" y="530" style="font-family: 'Open Sans', verdana, arial, sans-serif; font-size: 9px; fill: rgb(42, 63, 95); fill-opacity: 1; white-space: pre;" transform="translate(430.69,0)">2</text></g><g class="xtick"><text text-anchor="middle" x="0" y="530" style="font-family: 'Open Sans', verdana, arial, sans-serif; font-size: 9px; fill: rgb(42, 63, 95); fill-opacity: 1; white-space: pre;" transform="translate(488.33,0)">3</text></g><g class="xtick"><text text-anchor="middle" x="0" y="530" style="font-family: 'Open Sans', verdana, arial, sans-serif; font-size: 9px; fill: rgb(42, 63, 95); fill-opacity: 1; white-space: pre;" transform="translate(529.23,0)">4</text></g></g><g class="yaxislayer-above"><g class="ytick"><text text-anchor="end" x="79" y="4.199999999999999" transform="translate(0,510.15)" style="font-family: 'Open Sans', verdana, arial, sans-serif; font-size: 12px; fill: rgb(42, 63, 95); fill-opacity: 1; white-space: pre;">0.8</text></g><g class="ytick"><text text-anchor="end" x="79" y="4.199999999999999" style="font-family: 'Open Sans', verdana, arial, sans-serif; font-size: 12px; fill: rgb(42, 63, 95); fill-opacity: 1; white-space: pre;" transform="translate(0,455.77)">0.85</text></g><g class="ytick"><text text-anchor="end" x="79" y="4.199999999999999" style="font-family: 'Open Sans', verdana, arial, sans-serif; font-size: 12px; fill: rgb(42, 63, 95); fill-opacity: 1; white-space: pre;" transform="translate(0,404.5)">0.9</text></g><g class="ytick"><text text-anchor="end" x="79" y="4.199999999999999" style="font-family: 'Open Sans', verdana, arial, sans-serif; font-size: 12px; fill: rgb(42, 63, 95); fill-opacity: 1; white-space: pre;" transform="translate(0,356.01)">0.95</text></g><g class="ytick"><text text-anchor="end" x="79" y="4.199999999999999" style="font-family: 'Open Sans', verdana, arial, sans-serif; font-size: 12px; fill: rgb(42, 63, 95); fill-opacity: 1; white-space: pre;" transform="translate(0,310)">1</text></g><g class="ytick"><text text-anchor="end" x="79" y="4.199999999999999" style="font-family: 'Open Sans', verdana, arial, sans-serif; font-size: 12px; fill: rgb(42, 63, 95); fill-opacity: 1; white-space: pre;" transform="translate(0,266.24)">1.05</text></g><g class="ytick"><text text-anchor="end" x="79" y="4.199999999999999" style="font-family: 'Open Sans', verdana, arial, sans-serif; font-size: 12px; fill: rgb(42, 63, 95); fill-opacity: 1; white-space: pre;" transform="translate(0,224.51)">1.1</text></g><g class="ytick"><text text-anchor="end" x="79" y="4.199999999999999" style="font-family: 'Open Sans', verdana, arial, sans-serif; font-size: 12px; fill: rgb(42, 63, 95); fill-opacity: 1; white-space: pre;" transform="translate(0,184.64)">1.15</text></g><g class="ytick"><text text-anchor="end" x="79" y="4.199999999999999" style="font-family: 'Open Sans', verdana, arial, sans-serif; font-size: 12px; fill: rgb(42, 63, 95); fill-opacity: 1; white-space: pre;" transform="translate(0,146.47)">1.2</text></g><g class="ytick"><text text-anchor="end" x="79" y="4.199999999999999" style="font-family: 'Open Sans', verdana, arial, sans-serif; font-size: 12px; fill: rgb(42, 63, 95); fill-opacity: 1; white-space: pre;" transform="translate(0,109.85)">1.25</text></g></g><g class="overaxes-above"/></g></g><g class="polarlayer"/><g class="smithlayer"/><g class="ternarylayer"/><g class="geolayer"/><g class="funnelarealayer"/><g class="pielayer"/><g class="iciclelayer"/><g class="treemaplayer"/><g class="sunburstlayer"/><g class="glimages"/><defs id="topdefs-e5eaf8"><g class="clips"/></defs><g class="layer-above"><g class="imagelayer"/><g class="shapelayer"><g class="shape-group" data-index="0" clip-path="url(#clipe5eaf8y)"><path data-index="0" fill-rule="evenodd" d="M80,310L554,310" style="opacity: 1; stroke: rgb(128, 128, 128); stroke-opacity: 1; fill: rgb(0, 0, 0); fill-opacity: 0; stroke-dasharray: 9px, 9px; stroke-width: 2px;"/></g></g></g><g class="infolayer"><g class="cbcoloraxis colorbar" transform="translate(80,100)"><rect class="cbbg" x="483" y="0" width="124.76171875" height="420" style="fill: rgb(0, 0, 0); fill-opacity: 0; stroke: rgb(68, 68, 68); stroke-opacity: 1; stroke-width: 0;"/><g class="cbfills" transform="translate(0,31)"><rect class="cbfill gradient_filled" style="fill: url('#ge5eaf8-cbcoloraxis');" x="493" y="0" width="30" height="379"/></g><g class="cblines" transform="translate(0,31)"/><g class="cbaxis crisp" transform="translate(0,-100)"><g class="ycbcoloraxistick"><text text-anchor="start" x="525.9" y="4.199999999999999" transform="translate(0,475.5400000000001)" style="font-family: 'Open Sans', verdana, arial, sans-serif; font-size: 12px; fill: rgb(42, 63, 95); fill-opacity: 1; white-space: pre;">−0.02</text></g><g class="ycbcoloraxistick"><text text-anchor="start" x="525.9" y="4.199999999999999" style="font-family: 'Open Sans', verdana, arial, sans-serif; font-size: 12px; fill: rgb(42, 63, 95); fill-opacity: 1; white-space: pre;" transform="translate(0,436.78)">−0.015</text></g><g class="ycbcoloraxistick"><text text-anchor="start" x="525.9" y="4.199999999999999" style="font-family: 'Open Sans', verdana, arial, sans-serif; font-size: 12px; fill: rgb(42, 63, 95); fill-opacity: 1; white-space: pre;" transform="translate(0,398.02)">−0.01</text></g><g class="ycbcoloraxistick"><text text-anchor="start" x="525.9" y="4.199999999999999" style="font-family: 'Open Sans', verdana, arial, sans-serif; font-size: 12px; fill: rgb(42, 63, 95); fill-opacity: 1; white-space: pre;" transform="translate(0,359.26)">−0.005</text></g><g class="ycbcoloraxistick"><text text-anchor="start" x="525.9" y="4.199999999999999" style="font-family: 'Open Sans', verdana, arial, sans-serif; font-size: 12px; fill: rgb(42, 63, 95); fill-opacity: 1; white-space: pre;" transform="translate(0,320.5)">0</text></g><g class="ycbcoloraxistick"><text text-anchor="start" x="525.9" y="4.199999999999999" style="font-family: 'Open Sans', verdana, arial, sans-serif; font-size: 12px; fill: rgb(42, 63, 95); fill-opacity: 1; white-space: pre;" transform="translate(0,281.74)">0.005</text></g><g class="ycbcoloraxistick"><text text-anchor="start" x="525.9" y="4.199999999999999" style="font-family: 'Open Sans', verdana, arial, sans-serif; font-size: 12px; fill: rgb(42, 63, 95); fill-opacity: 1; white-space: pre;" transform="translate(0,242.98000000000002)">0.01</text></g><g class="ycbcoloraxistick"><text text-anchor="start" x="525.9" y="4.199999999999999" style="font-family: 'Open Sans', verdana, arial, sans-serif; font-size: 12px; fill: rgb(42, 63, 95); fill-opacity: 1; white-space: pre;" transform="translate(0,204.22000000000003)">0.015</text></g><g class="ycbcoloraxistick"><text text-anchor="start" x="525.9" y="4.199999999999999" style="font-family: 'Open Sans', verdana, arial, sans-serif; font-size: 12px; fill: rgb(42, 63, 95); fill-opacity: 1; white-space: pre;" transform="translate(0,165.46000000000004)">0.02</text></g></g><g class="cbtitleunshift" transform="translate(-80,-100)"><g class="cbtitle" transform=""><text class="ycbcoloraxistitle" x="573.48" y="123.5" text-anchor="start" style="opacity: 1; font-family: 'Open Sans', verdana, arial, sans-serif; font-size: 14px; fill: rgb(42, 63, 95); fill-opacity: 1; white-space: pre;">Δ time (seconds)</text></g></g><rect class="cboutline" x="493" y="31" width="30" height="379" style="stroke: rgb(68, 68, 68); stroke-opacity: 1; fill: none; stroke-width: 0;"/></g><g class="g-gtitle"><text class="gtitle" x="35" y="50" text-anchor="start" dy="0em" style="opacity: 1; font-family: 'Open Sans', verdana, arial, sans-serif; font-size: 17px; fill: rgb(42, 63, 95); fill-opacity: 1; white-space: pre;">time: candidate vs baseline (legacy) — top-right = regressed</text></g><g class="g-xtitle"><text class="xtitle" x="317" y="566.3" text-anchor="middle" style="opacity: 1; font-family: 'Open Sans', verdana, arial, sans-serif; font-size: 14px; fill: rgb(42, 63, 95); fill-opacity: 1; white-space: pre;">baseline time (seconds), log</text></g><g class="g-ytitle"><text class="ytitle" transform="rotate(-90,36.240625,310)" x="36.240625" y="310" text-anchor="middle" style="opacity: 1; font-family: 'Open Sans', verdana, arial, sans-serif; font-size: 14px; fill: rgb(42, 63, 95); fill-opacity: 1; white-space: pre;">ratio: candidate / baseline (log)</text></g></g></svg>